<?xml version="1.0" encoding="utf-8"?>

<!-- The icon can be used freely in both personal and commercial projects with no attribution required, but always appreciated. 
You may NOT sub-license, resell, rent, redistribute or otherwise transfer the icon without express written permission from iconmonstr.com -->

<!DOCTYPE svg PUBLIC "-//W3C//DTD SVG 1.1//EN" "http://www.w3.org/Graphics/SVG/1.1/DTD/svg11.dtd">
<svg version="1.1" xmlns="http://www.w3.org/2000/svg" xmlns:xlink="http://www.w3.org/1999/xlink" x="0px" y="0px"
	 width="136.913px" height="136.914px" viewBox="0 0 512 512" enable-background="new 0 0 512 512" xml:space="preserve">
<path id="lock-12-icon" d="M256,50.001c-113.771,0-206,92.229-206,206s92.229,205.998,206,205.998c113.771,0,206-92.227,206-205.998
	S369.771,50.001,256,50.001z M202.225,197.952c0-30.755,25.021-55.776,55.775-55.776c30.754,0,55.775,25.021,55.775,55.776v31.585
	h-25.2v-31.585c0-16.859-13.716-30.576-30.575-30.576s-30.576,13.717-30.576,30.576v31.585h-25.199V197.952z M332.591,349.825
	H183.408V244.656h149.183V349.825z"/>
</svg>
