<?xml version="1.0" encoding="utf-8"?>

<!-- The icon can be used freely in both personal and commercial projects with no attribution required, but always appreciated. 
You may NOT sub-license, resell, rent, redistribute or otherwise transfer the icon without express written permission from iconmonstr.com -->

<!DOCTYPE svg PUBLIC "-//W3C//DTD SVG 1.1//EN" "http://www.w3.org/Graphics/SVG/1.1/DTD/svg11.dtd">
<svg version="1.1" xmlns="http://www.w3.org/2000/svg" xmlns:xlink="http://www.w3.org/1999/xlink" x="0px" y="0px"
	 width="136.913px" height="136.914px" viewBox="0 0 512 512" enable-background="new 0 0 512 512" xml:space="preserve">
<path id="lock-14-icon" d="M256,50.001c-113.771,0-206,92.229-206,206s92.229,205.998,206,205.998
	c113.771,0,206-92.227,206-205.998S369.771,50.001,256,50.001z M179.001,196.333v31.334h-25v-31.334
	c0-30.511,24.822-55.333,55.332-55.333c30.512,0,55.334,24.822,55.334,55.333v31.334h-25v-31.334
	c0-16.726-13.607-30.333-30.334-30.333C192.608,166,179.001,179.607,179.001,196.333z M359.999,347h-148V242.667h148V347z"/>
</svg>
